<svg id="visual" viewBox="0 0 900 900" width="900" height="900" xmlns="http://www.w3.org/2000/svg" xmlns:xlink="http://www.w3.org/1999/xlink" version="1.1"><rect x="0" y="0" width="900" height="900" fill="#e6eff6"></rect><defs><linearGradient id="grad1_0" x1="0%" y1="100%" x2="100%" y2="0%"><stop offset="30%" stop-color="#376b31" stop-opacity="1"></stop><stop offset="70%" stop-color="#376b31" stop-opacity="1"></stop></linearGradient></defs><defs><linearGradient id="grad1_1" x1="0%" y1="100%" x2="100%" y2="0%"><stop offset="30%" stop-color="#376b31" stop-opacity="1"></stop><stop offset="70%" stop-color="#4d9a87" stop-opacity="1"></stop></linearGradient></defs><defs><linearGradient id="grad1_2" x1="0%" y1="100%" x2="100%" y2="0%"><stop offset="30%" stop-color="#94c4cb" stop-opacity="1"></stop><stop offset="70%" stop-color="#4d9a87" stop-opacity="1"></stop></linearGradient></defs><defs><linearGradient id="grad1_3" x1="0%" y1="100%" x2="100%" y2="0%"><stop offset="30%" stop-color="#94c4cb" stop-opacity="1"></stop><stop offset="70%" stop-color="#e6eff6" stop-opacity="1"></stop></linearGradient></defs><defs><linearGradient id="grad2_0" x1="0%" y1="100%" x2="100%" y2="0%"><stop offset="30%" stop-color="#376b31" stop-opacity="1"></stop><stop offset="70%" stop-color="#376b31" stop-opacity="1"></stop></linearGradient></defs><defs><linearGradient id="grad2_1" x1="0%" y1="100%" x2="100%" y2="0%"><stop offset="30%" stop-color="#4d9a87" stop-opacity="1"></stop><stop offset="70%" stop-color="#376b31" stop-opacity="1"></stop></linearGradient></defs><defs><linearGradient id="grad2_2" x1="0%" y1="100%" x2="100%" y2="0%"><stop offset="30%" stop-color="#4d9a87" stop-opacity="1"></stop><stop offset="70%" stop-color="#94c4cb" stop-opacity="1"></stop></linearGradient></defs><defs><linearGradient id="grad2_3" x1="0%" y1="100%" x2="100%" y2="0%"><stop offset="30%" stop-color="#e6eff6" stop-opacity="1"></stop><stop offset="70%" stop-color="#94c4cb" stop-opacity="1"></stop></linearGradient></defs><g transform="translate(900, 900)"><path d="M-509.1 0C-475.8 -21.4 -442.6 -42.9 -441.5 -69.9C-440.4 -97 -471.6 -129.7 -467.9 -152C-464.3 -174.4 -425.9 -186.4 -414.3 -211.1C-402.7 -235.9 -418 -273.4 -411.9 -299.3C-405.8 -325.1 -378.5 -339.4 -355.7 -355.7C-332.9 -371.9 -314.7 -390.2 -289.2 -398C-263.7 -405.9 -230.9 -403.3 -202 -396.5C-173.2 -389.7 -148.3 -378.8 -129.8 -399.4C-111.3 -420.1 -99.1 -472.3 -78.5 -495.8C-58 -519.4 -29 -514.2 0 -509.1L0 0Z" fill="#bed9e4"></path><path d="M-381.8 0C-356.9 -16.1 -331.9 -32.1 -331.1 -52.4C-330.3 -72.7 -353.7 -97.3 -350.9 -114C-348.2 -130.8 -319.4 -139.8 -310.7 -158.3C-302.1 -176.9 -313.5 -205 -308.9 -224.4C-304.4 -243.9 -283.8 -254.6 -266.8 -266.8C-249.7 -279 -236 -292.7 -216.9 -298.5C-197.8 -304.4 -173.2 -302.4 -151.5 -297.4C-129.9 -292.3 -111.2 -284.1 -97.3 -299.6C-83.5 -315.1 -74.3 -354.2 -58.9 -371.9C-43.5 -389.5 -21.7 -385.7 0 -381.8L0 0Z" fill="#6cafac"></path><path d="M-254.6 0C-237.9 -10.7 -221.3 -21.4 -220.7 -35C-220.2 -48.5 -235.8 -64.8 -234 -76C-232.1 -87.2 -213 -93.2 -207.2 -105.6C-201.4 -117.9 -209 -136.7 -205.9 -149.6C-202.9 -162.6 -189.2 -169.7 -177.8 -177.8C-166.4 -186 -157.3 -195.1 -144.6 -199C-131.8 -202.9 -115.4 -201.6 -101 -198.2C-86.6 -194.9 -74.2 -189.4 -64.9 -199.7C-55.6 -210 -49.6 -236.1 -39.3 -247.9C-29 -259.7 -14.5 -257.1 0 -254.6L0 0Z" fill="#3c835d"></path><path d="M-127.3 0C-119 -5.4 -110.6 -10.7 -110.4 -17.5C-110.1 -24.2 -117.9 -32.4 -117 -38C-116.1 -43.6 -106.5 -46.6 -103.6 -52.8C-100.7 -59 -104.5 -68.3 -103 -74.8C-101.5 -81.3 -94.6 -84.9 -88.9 -88.9C-83.2 -93 -78.7 -97.6 -72.3 -99.5C-65.9 -101.5 -57.7 -100.8 -50.5 -99.1C-43.3 -97.4 -37.1 -94.7 -32.4 -99.9C-27.8 -105 -24.8 -118.1 -19.6 -124C-14.5 -129.8 -7.2 -128.6 0 -127.3L0 0Z" fill="#376b31"></path></g><g transform="translate(0, 0)"><path d="M509.1 0C501.2 25.1 493.4 50.3 491.9 77.9C490.4 105.6 495.3 135.7 473.6 153.9C452 172.1 403.7 178.3 385.8 196.6C367.9 214.9 380.3 245.3 385.1 279.8C389.9 314.2 387.2 352.7 360 360C332.8 367.3 281.1 343.6 255.7 351.9C230.2 360.3 231 400.8 218.4 428.6C205.7 456.4 179.7 471.5 152.7 469.8C125.6 468.1 97.4 449.6 71.8 453.3C46.2 457.1 23.1 483.1 0 509.1L0 0Z" fill="#bed9e4"></path><path d="M381.8 0C375.9 18.8 370 37.7 368.9 58.4C367.8 79.2 371.5 101.8 355.2 115.4C339 129.1 302.8 133.7 289.4 147.4C275.9 161.2 285.2 184 288.8 209.8C292.4 235.7 290.4 264.5 270 270C249.6 275.5 210.9 257.7 191.8 263.9C172.7 270.2 173.2 300.6 163.8 321.4C154.3 342.3 134.8 353.6 114.5 352.4C94.2 351.1 73.1 337.2 53.9 340C34.6 342.8 17.3 362.3 0 381.8L0 0Z" fill="#6cafac"></path><path d="M254.6 0C250.6 12.6 246.7 25.1 245.9 39C245.2 52.8 247.6 67.9 236.8 76.9C226 86 201.9 89.1 192.9 98.3C183.9 107.4 190.1 122.7 192.5 139.9C195 157.1 193.6 176.3 180 180C166.4 183.7 140.6 171.8 127.8 176C115.1 180.1 115.5 200.4 109.2 214.3C102.9 228.2 89.9 235.8 76.3 234.9C62.8 234.1 48.7 224.8 35.9 226.7C23.1 228.5 11.5 241.6 0 254.6L0 0Z" fill="#3c835d"></path><path d="M127.3 0C125.3 6.3 123.3 12.6 123 19.5C122.6 26.4 123.8 33.9 118.4 38.5C113 43 100.9 44.6 96.5 49.1C92 53.7 95.1 61.3 96.3 69.9C97.5 78.6 96.8 88.2 90 90C83.2 91.8 70.3 85.9 63.9 88C57.6 90.1 57.7 100.2 54.6 107.1C51.4 114.1 44.9 117.9 38.2 117.5C31.4 117 24.4 112.4 18 113.3C11.5 114.3 5.8 120.8 0 127.3L0 0Z" fill="#376b31"></path></g></svg>