<svg id="visual" viewBox="0 0 900 900" width="900" height="900" xmlns="http://www.w3.org/2000/svg" xmlns:xlink="http://www.w3.org/1999/xlink" version="1.1"><rect x="0" y="0" width="900" height="900" fill="#FFFFFF"></rect><defs><linearGradient id="grad1_0" x1="0%" y1="100%" x2="100%" y2="0%"><stop offset="30%" stop-color="#166439" stop-opacity="1"></stop><stop offset="70%" stop-color="#166439" stop-opacity="1"></stop></linearGradient></defs><defs><linearGradient id="grad1_1" x1="0%" y1="100%" x2="100%" y2="0%"><stop offset="30%" stop-color="#166439" stop-opacity="1"></stop><stop offset="70%" stop-color="#558966" stop-opacity="1"></stop></linearGradient></defs><defs><linearGradient id="grad1_2" x1="0%" y1="100%" x2="100%" y2="0%"><stop offset="30%" stop-color="#8db096" stop-opacity="1"></stop><stop offset="70%" stop-color="#558966" stop-opacity="1"></stop></linearGradient></defs><defs><linearGradient id="grad1_3" x1="0%" y1="100%" x2="100%" y2="0%"><stop offset="30%" stop-color="#8db096" stop-opacity="1"></stop><stop offset="70%" stop-color="#c5d7ca" stop-opacity="1"></stop></linearGradient></defs><defs><linearGradient id="grad1_4" x1="0%" y1="100%" x2="100%" y2="0%"><stop offset="30%" stop-color="#ffffff" stop-opacity="1"></stop><stop offset="70%" stop-color="#c5d7ca" stop-opacity="1"></stop></linearGradient></defs><defs><linearGradient id="grad2_0" x1="0%" y1="100%" x2="100%" y2="0%"><stop offset="30%" stop-color="#166439" stop-opacity="1"></stop><stop offset="70%" stop-color="#166439" stop-opacity="1"></stop></linearGradient></defs><defs><linearGradient id="grad2_1" x1="0%" y1="100%" x2="100%" y2="0%"><stop offset="30%" stop-color="#558966" stop-opacity="1"></stop><stop offset="70%" stop-color="#166439" stop-opacity="1"></stop></linearGradient></defs><defs><linearGradient id="grad2_2" x1="0%" y1="100%" x2="100%" y2="0%"><stop offset="30%" stop-color="#558966" stop-opacity="1"></stop><stop offset="70%" stop-color="#8db096" stop-opacity="1"></stop></linearGradient></defs><defs><linearGradient id="grad2_3" x1="0%" y1="100%" x2="100%" y2="0%"><stop offset="30%" stop-color="#c5d7ca" stop-opacity="1"></stop><stop offset="70%" stop-color="#8db096" stop-opacity="1"></stop></linearGradient></defs><defs><linearGradient id="grad2_4" x1="0%" y1="100%" x2="100%" y2="0%"><stop offset="30%" stop-color="#c5d7ca" stop-opacity="1"></stop><stop offset="70%" stop-color="#ffffff" stop-opacity="1"></stop></linearGradient></defs><g transform="translate(900, 900)"><path d="M-381.8 0C-341.4 -17.1 -300.9 -34.3 -302.1 -60.1C-303.3 -85.9 -346.2 -120.4 -352.8 -146.1C-359.4 -171.9 -329.7 -188.8 -310.1 -207.2C-290.5 -225.6 -281 -245.5 -263.8 -263.8C-246.5 -282 -221.5 -298.8 -187.2 -280.2C-153 -261.6 -109.4 -207.7 -91.5 -220.8C-73.5 -233.9 -81 -314.1 -70 -352.1C-59 -390.1 -29.5 -386 0 -381.8L0 0Z" fill="#e2ebe4"></path><path d="M-305.5 0C-273.1 -13.7 -240.7 -27.4 -241.7 -48.1C-242.6 -68.7 -276.9 -96.3 -282.2 -116.9C-287.5 -137.5 -263.8 -151.1 -248.1 -165.8C-232.4 -180.5 -224.8 -196.4 -211 -211C-197.2 -225.6 -177.2 -239 -149.8 -224.2C-122.4 -209.3 -87.6 -166.2 -73.2 -176.6C-58.8 -187.1 -64.8 -251.3 -56 -281.7C-47.2 -312.1 -23.6 -308.8 0 -305.5L0 0Z" fill="#a9c3b0"></path><path d="M-229.1 0C-204.8 -10.3 -180.5 -20.6 -181.2 -36.1C-182 -51.5 -207.7 -72.2 -211.7 -87.7C-215.6 -103.1 -197.8 -113.3 -186.1 -124.3C-174.3 -135.4 -168.6 -147.3 -158.3 -158.3C-147.9 -169.2 -132.9 -179.3 -112.3 -168.1C-91.8 -157 -65.7 -124.6 -54.9 -132.5C-44.1 -140.4 -48.6 -188.5 -42 -211.3C-35.4 -234.1 -17.7 -231.6 0 -229.1L0 0Z" fill="#719c7e"></path><path d="M-152.7 0C-136.5 -6.9 -120.4 -13.7 -120.8 -24C-121.3 -34.4 -138.5 -48.2 -141.1 -58.4C-143.8 -68.7 -131.9 -75.5 -124.1 -82.9C-116.2 -90.3 -112.4 -98.2 -105.5 -105.5C-98.6 -112.8 -88.6 -119.5 -74.9 -112.1C-61.2 -104.6 -43.8 -83.1 -36.6 -88.3C-29.4 -93.6 -32.4 -125.6 -28 -140.8C-23.6 -156 -11.8 -154.4 0 -152.7L0 0Z" fill="#39774f"></path><path d="M-76.4 0C-68.3 -3.4 -60.2 -6.9 -60.4 -12C-60.7 -17.2 -69.2 -24.1 -70.6 -29.2C-71.9 -34.4 -65.9 -37.8 -62 -41.4C-58.1 -45.1 -56.2 -49.1 -52.8 -52.8C-49.3 -56.4 -44.3 -59.8 -37.4 -56C-30.6 -52.3 -21.9 -41.5 -18.3 -44.2C-14.7 -46.8 -16.2 -62.8 -14 -70.4C-11.8 -78 -5.9 -77.2 0 -76.4L0 0Z" fill="#166439"></path></g><g transform="translate(0, 0)"><path d="M381.8 0C345.8 22.4 309.8 44.8 274.6 54.6C239.4 64.4 205.1 61.6 222.7 92.2C240.2 122.9 309.6 187 301 201.1C292.4 215.2 205.9 179.2 162.6 162.6C119.4 146.1 119.4 148.9 128.3 192.1C137.2 235.3 154.9 318.8 146.1 352.8C137.3 386.8 101.9 371.2 73.2 367.8C44.4 364.4 22.2 373.1 0 381.8L0 0Z" fill="#e2ebe4"></path><path d="M305.5 0C276.7 17.9 247.8 35.9 219.7 43.7C191.6 51.5 164.1 49.3 178.1 73.8C192.1 98.3 247.7 149.6 240.8 160.9C233.9 172.2 164.7 143.4 130.1 130.1C95.5 116.8 95.6 119.1 102.7 153.7C109.8 188.2 124 255 116.9 282.2C109.8 309.4 81.5 297 58.5 294.2C35.5 291.5 17.8 298.5 0 305.5L0 0Z" fill="#a9c3b0"></path><path d="M229.1 0C207.5 13.5 185.9 26.9 164.8 32.8C143.7 38.6 123.1 36.9 133.6 55.3C144.1 73.7 185.7 112.2 180.6 120.7C175.4 129.1 123.5 107.5 97.6 97.6C71.6 87.6 71.7 89.3 77 115.2C82.3 141.2 93 191.3 87.7 211.7C82.4 232.1 61.2 222.7 43.9 220.7C26.6 218.6 13.3 223.9 0 229.1L0 0Z" fill="#719c7e"></path><path d="M152.7 0C138.3 9 123.9 17.9 109.8 21.9C95.8 25.8 82 24.6 89.1 36.9C96.1 49.2 123.8 74.8 120.4 80.4C117 86.1 82.4 71.7 65.1 65.1C47.8 58.4 47.8 59.6 51.3 76.8C54.9 94.1 62 127.5 58.4 141.1C54.9 154.7 40.8 148.5 29.3 147.1C17.8 145.8 8.9 149.2 0 152.7L0 0Z" fill="#39774f"></path><path d="M76.4 0C69.2 4.5 62 9 54.9 10.9C47.9 12.9 41 12.3 44.5 18.4C48 24.6 61.9 37.4 60.2 40.2C58.5 43 41.2 35.8 32.5 32.5C23.9 29.2 23.9 29.8 25.7 38.4C27.4 47.1 31 63.8 29.2 70.6C27.5 77.4 20.4 74.2 14.6 73.6C8.9 72.9 4.4 74.6 0 76.4L0 0Z" fill="#166439"></path></g></svg>