<svg id="visual" viewBox="0 0 900 100" width="900" height="100" xmlns="http://www.w3.org/2000/svg" xmlns:xlink="http://www.w3.org/1999/xlink" version="1.1"><rect x="0" y="0" width="900" height="100" fill="#ffffff"></rect><path d="M0 34L25 32.8C50 31.7 100 29.3 150 32.5C200 35.7 250 44.3 300 50.5C350 56.7 400 60.3 450 56.5C500 52.7 550 41.3 600 41.2C650 41 700 52 750 54.8C800 57.7 850 52.3 875 49.7L900 47L900 101L875 101C850 101 800 101 750 101C700 101 650 101 600 101C550 101 500 101 450 101C400 101 350 101 300 101C250 101 200 101 150 101C100 101 50 101 25 101L0 101Z" fill="#A6E1A8" stroke-linecap="round" stroke-linejoin="miter"></path></svg>