<svg id="visual" viewBox="0 0 900 200" width="900" height="200" xmlns="http://www.w3.org/2000/svg" xmlns:xlink="http://www.w3.org/1999/xlink" version="1.1"><path d="M0 23L13.7 24.3C27.3 25.7 54.7 28.3 82 28C109.3 27.7 136.7 24.3 163.8 26.3C191 28.3 218 35.7 245.2 39.3C272.3 43 299.7 43 327 40C354.3 37 381.7 31 409 28.7C436.3 26.3 463.7 27.7 491 26.7C518.3 25.7 545.7 22.3 573 22.7C600.3 23 627.7 27 654.8 27.7C682 28.3 709 25.7 736.2 25C763.3 24.3 790.7 25.7 818 27C845.3 28.3 872.7 29.7 886.3 30.3L900 31L900 0L886.3 0C872.7 0 845.3 0 818 0C790.7 0 763.3 0 736.2 0C709 0 682 0 654.8 0C627.7 0 600.3 0 573 0C545.7 0 518.3 0 491 0C463.7 0 436.3 0 409 0C381.7 0 354.3 0 327 0C299.7 0 272.3 0 245.2 0C218 0 191 0 163.8 0C136.7 0 109.3 0 82 0C54.7 0 27.3 0 13.7 0L0 0Z" fill="#32644c"></path><path d="M0 47L13.7 48.7C27.3 50.3 54.7 53.7 82 55C109.3 56.3 136.7 55.7 163.8 57C191 58.3 218 61.7 245.2 63.7C272.3 65.7 299.7 66.3 327 63.7C354.3 61 381.7 55 409 52C436.3 49 463.7 49 491 49.3C518.3 49.7 545.7 50.3 573 49.3C600.3 48.3 627.7 45.7 654.8 43.3C682 41 709 39 736.2 41C763.3 43 790.7 49 818 51.3C845.3 53.7 872.7 52.3 886.3 51.7L900 51L900 29L886.3 28.3C872.7 27.7 845.3 26.3 818 25C790.7 23.7 763.3 22.3 736.2 23C709 23.7 682 26.3 654.8 25.7C627.7 25 600.3 21 573 20.7C545.7 20.3 518.3 23.7 491 24.7C463.7 25.7 436.3 24.3 409 26.7C381.7 29 354.3 35 327 38C299.7 41 272.3 41 245.2 37.3C218 33.7 191 26.3 163.8 24.3C136.7 22.3 109.3 25.7 82 26C54.7 26.3 27.3 23.7 13.7 22.3L0 21Z" fill="#638975"></path><path d="M0 121L13.7 118C27.3 115 54.7 109 82 108C109.3 107 136.7 111 163.8 110.7C191 110.3 218 105.7 245.2 106C272.3 106.3 299.7 111.7 327 119C354.3 126.3 381.7 135.7 409 133.3C436.3 131 463.7 117 491 108.3C518.3 99.7 545.7 96.3 573 94.7C600.3 93 627.7 93 654.8 100.7C682 108.3 709 123.7 736.2 131C763.3 138.3 790.7 137.7 818 132.7C845.3 127.7 872.7 118.3 886.3 113.7L900 109L900 49L886.3 49.7C872.7 50.3 845.3 51.7 818 49.3C790.7 47 763.3 41 736.2 39C709 37 682 39 654.8 41.3C627.7 43.7 600.3 46.3 573 47.3C545.7 48.3 518.3 47.7 491 47.3C463.7 47 436.3 47 409 50C381.7 53 354.3 59 327 61.7C299.7 64.3 272.3 63.7 245.2 61.7C218 59.7 191 56.3 163.8 55C136.7 53.7 109.3 54.3 82 53C54.7 51.7 27.3 48.3 13.7 46.7L0 45Z" fill="#95afa1"></path><path d="M0 173L13.7 169.7C27.3 166.3 54.7 159.7 82 154.3C109.3 149 136.7 145 163.8 139.7C191 134.3 218 127.7 245.2 129.3C272.3 131 299.7 141 327 149C354.3 157 381.7 163 409 161.7C436.3 160.3 463.7 151.7 491 147C518.3 142.3 545.7 141.7 573 140.7C600.3 139.7 627.7 138.3 654.8 142.3C682 146.3 709 155.7 736.2 158.7C763.3 161.7 790.7 158.3 818 155C845.3 151.7 872.7 148.3 886.3 146.7L900 145L900 107L886.3 111.7C872.7 116.3 845.3 125.7 818 130.7C790.7 135.7 763.3 136.3 736.2 129C709 121.7 682 106.3 654.8 98.7C627.7 91 600.3 91 573 92.7C545.7 94.3 518.3 97.7 491 106.3C463.7 115 436.3 129 409 131.3C381.7 133.7 354.3 124.3 327 117C299.7 109.7 272.3 104.3 245.2 104C218 103.7 191 108.3 163.8 108.7C136.7 109 109.3 105 82 106C54.7 107 27.3 113 13.7 116L0 119Z" fill="#c9d6cf"></path><path d="M0 201L13.7 201C27.3 201 54.7 201 82 201C109.3 201 136.7 201 163.8 201C191 201 218 201 245.2 201C272.3 201 299.7 201 327 201C354.3 201 381.7 201 409 201C436.3 201 463.7 201 491 201C518.3 201 545.7 201 573 201C600.3 201 627.7 201 654.8 201C682 201 709 201 736.2 201C763.3 201 790.7 201 818 201C845.3 201 872.7 201 886.3 201L900 201L900 143L886.3 144.7C872.7 146.3 845.3 149.7 818 153C790.7 156.3 763.3 159.7 736.2 156.7C709 153.7 682 144.3 654.8 140.3C627.7 136.3 600.3 137.7 573 138.7C545.7 139.7 518.3 140.3 491 145C463.7 149.7 436.3 158.3 409 159.7C381.7 161 354.3 155 327 147C299.7 139 272.3 129 245.2 127.3C218 125.7 191 132.3 163.8 137.7C136.7 143 109.3 147 82 152.3C54.7 157.7 27.3 164.3 13.7 167.7L0 171Z" fill="#ffffff"></path></svg>