<svg id="visual" viewBox="0 0 300 900" width="300" height="900" xmlns="http://www.w3.org/2000/svg" xmlns:xlink="http://www.w3.org/1999/xlink" version="1.1"><path d="M275 900L276 892.2C277 884.3 279 868.7 278 852.8C277 837 273 821 271 805.2C269 789.3 269 773.7 271.5 758C274 742.3 279 726.7 280 710.8C281 695 278 679 276.5 663.2C275 647.3 275 631.7 276 615.8C277 600 279 584 279.5 568.2C280 552.3 279 536.7 275 521C271 505.3 264 489.7 263 473.8C262 458 267 442 267 426.2C267 410.3 262 394.7 263.5 379C265 363.3 273 347.7 277 331.8C281 316 281 300 278 284.2C275 268.3 269 252.7 267 236.8C265 221 267 205 267 189.2C267 173.3 265 157.7 265.5 142C266 126.3 269 110.7 270.5 94.8C272 79 272 63 272 47.2C272 31.3 272 15.7 272 7.8L272 0L300 0L300 7.8C300 15.7 300 31.3 300 47.2C300 63 300 79 300 94.8C300 110.7 300 126.3 300 142C300 157.7 300 173.3 300 189.2C300 205 300 221 300 236.8C300 252.7 300 268.3 300 284.2C300 300 300 316 300 331.8C300 347.7 300 363.3 300 379C300 394.7 300 410.3 300 426.2C300 442 300 458 300 473.8C300 489.7 300 505.3 300 521C300 536.7 300 552.3 300 568.2C300 584 300 600 300 615.8C300 631.7 300 647.3 300 663.2C300 679 300 695 300 710.8C300 726.7 300 742.3 300 758C300 773.7 300 789.3 300 805.2C300 821 300 837 300 852.8C300 868.7 300 884.3 300 892.2L300 900Z" fill="#ffffff"></path><path d="M254 900L250.5 892.2C247 884.3 240 868.7 235 852.8C230 837 227 821 224.5 805.2C222 789.3 220 773.7 222.5 758C225 742.3 232 726.7 236 710.8C240 695 241 679 242 663.2C243 647.3 244 631.7 243 615.8C242 600 239 584 240.5 568.2C242 552.3 248 536.7 243.5 521C239 505.3 224 489.7 222 473.8C220 458 231 442 234.5 426.2C238 410.3 234 394.7 236.5 379C239 363.3 248 347.7 248 331.8C248 316 239 300 234 284.2C229 268.3 228 252.7 232 236.8C236 221 245 205 244.5 189.2C244 173.3 234 157.7 229.5 142C225 126.3 226 110.7 229 94.8C232 79 237 63 237.5 47.2C238 31.3 234 15.7 232 7.8L230 0L273 0L273 7.8C273 15.7 273 31.3 273 47.2C273 63 273 79 271.5 94.8C270 110.7 267 126.3 266.5 142C266 157.7 268 173.3 268 189.2C268 205 266 221 268 236.8C270 252.7 276 268.3 279 284.2C282 300 282 316 278 331.8C274 347.7 266 363.3 264.5 379C263 394.7 268 410.3 268 426.2C268 442 263 458 264 473.8C265 489.7 272 505.3 276 521C280 536.7 281 552.3 280.5 568.2C280 584 278 600 277 615.8C276 631.7 276 647.3 277.5 663.2C279 679 282 695 281 710.8C280 726.7 275 742.3 272.5 758C270 773.7 270 789.3 272 805.2C274 821 278 837 279 852.8C280 868.7 278 884.3 277 892.2L276 900Z" fill="#dee4e9"></path><path d="M236 900L231 892.2C226 884.3 216 868.7 211 852.8C206 837 206 821 206 805.2C206 789.3 206 773.7 210 758C214 742.3 222 726.7 225 710.8C228 695 226 679 226 663.2C226 647.3 228 631.7 227 615.8C226 600 222 584 223.5 568.2C225 552.3 232 536.7 226.5 521C221 505.3 203 489.7 201.5 473.8C200 458 215 442 218.5 426.2C222 410.3 214 394.7 214.5 379C215 363.3 224 347.7 225.5 331.8C227 316 221 300 216.5 284.2C212 268.3 209 252.7 214 236.8C219 221 232 205 231 189.2C230 173.3 215 157.7 209 142C203 126.3 206 110.7 208.5 94.8C211 79 213 63 214.5 47.2C216 31.3 217 15.7 217.5 7.8L218 0L231 0L233 7.8C235 15.7 239 31.3 238.5 47.2C238 63 233 79 230 94.8C227 110.7 226 126.3 230.5 142C235 157.7 245 173.3 245.5 189.2C246 205 237 221 233 236.8C229 252.7 230 268.3 235 284.2C240 300 249 316 249 331.8C249 347.7 240 363.3 237.5 379C235 394.7 239 410.3 235.5 426.2C232 442 221 458 223 473.8C225 489.7 240 505.3 244.5 521C249 536.7 243 552.3 241.5 568.2C240 584 243 600 244 615.8C245 631.7 244 647.3 243 663.2C242 679 241 695 237 710.8C233 726.7 226 742.3 223.5 758C221 773.7 223 789.3 225.5 805.2C228 821 231 837 236 852.8C241 868.7 248 884.3 251.5 892.2L255 900Z" fill="#bdc9d2"></path><path d="M188 900L181.5 892.2C175 884.3 162 868.7 159.5 852.8C157 837 165 821 169 805.2C173 789.3 173 773.7 173.5 758C174 742.3 175 726.7 179.5 710.8C184 695 192 679 195.5 663.2C199 647.3 198 631.7 191.5 615.8C185 600 173 584 175 568.2C177 552.3 193 536.7 189.5 521C186 505.3 163 489.7 159.5 473.8C156 458 172 442 174.5 426.2C177 410.3 166 394.7 162.5 379C159 363.3 163 347.7 163.5 331.8C164 316 161 300 163.5 284.2C166 268.3 174 252.7 178.5 236.8C183 221 184 205 181 189.2C178 173.3 171 157.7 164.5 142C158 126.3 152 110.7 155.5 94.8C159 79 172 63 175.5 47.2C179 31.3 173 15.7 170 7.8L167 0L219 0L218.5 7.8C218 15.7 217 31.3 215.5 47.2C214 63 212 79 209.5 94.8C207 110.7 204 126.3 210 142C216 157.7 231 173.3 232 189.2C233 205 220 221 215 236.8C210 252.7 213 268.3 217.5 284.2C222 300 228 316 226.5 331.8C225 347.7 216 363.3 215.5 379C215 394.7 223 410.3 219.5 426.2C216 442 201 458 202.5 473.8C204 489.7 222 505.3 227.5 521C233 536.7 226 552.3 224.5 568.2C223 584 227 600 228 615.8C229 631.7 227 647.3 227 663.2C227 679 229 695 226 710.8C223 726.7 215 742.3 211 758C207 773.7 207 789.3 207 805.2C207 821 207 837 212 852.8C217 868.7 227 884.3 232 892.2L237 900Z" fill="#9dafbd"></path><path d="M92 900L94.5 892.2C97 884.3 102 868.7 106.5 852.8C111 837 115 821 117.5 805.2C120 789.3 121 773.7 120.5 758C120 742.3 118 726.7 114 710.8C110 695 104 679 102.5 663.2C101 647.3 104 631.7 101.5 615.8C99 600 91 584 90 568.2C89 552.3 95 536.7 98 521C101 505.3 101 489.7 109.5 473.8C118 458 135 442 131.5 426.2C128 410.3 104 394.7 99.5 379C95 363.3 110 347.7 116 331.8C122 316 119 300 110.5 284.2C102 268.3 88 252.7 92 236.8C96 221 118 205 120.5 189.2C123 173.3 106 157.7 95.5 142C85 126.3 81 110.7 84.5 94.8C88 79 99 63 101 47.2C103 31.3 96 15.7 92.5 7.8L89 0L168 0L171 7.8C174 15.7 180 31.3 176.5 47.2C173 63 160 79 156.5 94.8C153 110.7 159 126.3 165.5 142C172 157.7 179 173.3 182 189.2C185 205 184 221 179.5 236.8C175 252.7 167 268.3 164.5 284.2C162 300 165 316 164.5 331.8C164 347.7 160 363.3 163.5 379C167 394.7 178 410.3 175.5 426.2C173 442 157 458 160.5 473.8C164 489.7 187 505.3 190.5 521C194 536.7 178 552.3 176 568.2C174 584 186 600 192.5 615.8C199 631.7 200 647.3 196.5 663.2C193 679 185 695 180.5 710.8C176 726.7 175 742.3 174.5 758C174 773.7 174 789.3 170 805.2C166 821 158 837 160.5 852.8C163 868.7 176 884.3 182.5 892.2L189 900Z" fill="#7d95a7"></path><path d="M41 900L40 892.2C39 884.3 37 868.7 36.5 852.8C36 837 37 821 38 805.2C39 789.3 40 773.7 40.5 758C41 742.3 41 726.7 40 710.8C39 695 37 679 36.5 663.2C36 647.3 37 631.7 40 615.8C43 600 48 584 47 568.2C46 552.3 39 536.7 35 521C31 505.3 30 489.7 33 473.8C36 458 43 442 44 426.2C45 410.3 40 394.7 39.5 379C39 363.3 43 347.7 45 331.8C47 316 47 300 42.5 284.2C38 268.3 29 252.7 30.5 236.8C32 221 44 205 44 189.2C44 173.3 32 157.7 27 142C22 126.3 24 110.7 28 94.8C32 79 38 63 39.5 47.2C41 31.3 38 15.7 36.5 7.8L35 0L90 0L93.5 7.8C97 15.7 104 31.3 102 47.2C100 63 89 79 85.5 94.8C82 110.7 86 126.3 96.5 142C107 157.7 124 173.3 121.5 189.2C119 205 97 221 93 236.8C89 252.7 103 268.3 111.5 284.2C120 300 123 316 117 331.8C111 347.7 96 363.3 100.5 379C105 394.7 129 410.3 132.5 426.2C136 442 119 458 110.5 473.8C102 489.7 102 505.3 99 521C96 536.7 90 552.3 91 568.2C92 584 100 600 102.5 615.8C105 631.7 102 647.3 103.5 663.2C105 679 111 695 115 710.8C119 726.7 121 742.3 121.5 758C122 773.7 121 789.3 118.5 805.2C116 821 112 837 107.5 852.8C103 868.7 98 884.3 95.5 892.2L93 900Z" fill="#5e7d92"></path><path d="M29 900L27 892.2C25 884.3 21 868.7 20.5 852.8C20 837 23 821 22 805.2C21 789.3 16 773.7 16.5 758C17 742.3 23 726.7 23.5 710.8C24 695 19 679 16 663.2C13 647.3 12 631.7 14.5 615.8C17 600 23 584 24 568.2C25 552.3 21 536.7 18 521C15 505.3 13 489.7 13.5 473.8C14 458 17 442 17.5 426.2C18 410.3 16 394.7 14.5 379C13 363.3 12 347.7 13.5 331.8C15 316 19 300 18.5 284.2C18 268.3 13 252.7 14 236.8C15 221 22 205 22 189.2C22 173.3 15 157.7 12.5 142C10 126.3 12 110.7 13.5 94.8C15 79 16 63 16.5 47.2C17 31.3 17 15.7 17 7.8L17 0L36 0L37.5 7.8C39 15.7 42 31.3 40.5 47.2C39 63 33 79 29 94.8C25 110.7 23 126.3 28 142C33 157.7 45 173.3 45 189.2C45 205 33 221 31.5 236.8C30 252.7 39 268.3 43.5 284.2C48 300 48 316 46 331.8C44 347.7 40 363.3 40.5 379C41 394.7 46 410.3 45 426.2C44 442 37 458 34 473.8C31 489.7 32 505.3 36 521C40 536.7 47 552.3 48 568.2C49 584 44 600 41 615.8C38 631.7 37 647.3 37.5 663.2C38 679 40 695 41 710.8C42 726.7 42 742.3 41.5 758C41 773.7 40 789.3 39 805.2C38 821 37 837 37.5 852.8C38 868.7 40 884.3 41 892.2L42 900Z" fill="#3e657e"></path><path d="M0 900L0 892.2C0 884.3 0 868.7 0 852.8C0 837 0 821 0 805.2C0 789.3 0 773.7 0 758C0 742.3 0 726.7 0 710.8C0 695 0 679 0 663.2C0 647.3 0 631.7 0 615.8C0 600 0 584 0 568.2C0 552.3 0 536.7 0 521C0 505.3 0 489.7 0 473.8C0 458 0 442 0 426.2C0 410.3 0 394.7 0 379C0 363.3 0 347.7 0 331.8C0 316 0 300 0 284.2C0 268.3 0 252.7 0 236.8C0 221 0 205 0 189.2C0 173.3 0 157.7 0 142C0 126.3 0 110.7 0 94.8C0 79 0 63 0 47.2C0 31.3 0 15.7 0 7.8L0 0L18 0L18 7.8C18 15.7 18 31.3 17.5 47.2C17 63 16 79 14.5 94.8C13 110.7 11 126.3 13.5 142C16 157.7 23 173.3 23 189.2C23 205 16 221 15 236.8C14 252.7 19 268.3 19.5 284.2C20 300 16 316 14.5 331.8C13 347.7 14 363.3 15.5 379C17 394.7 19 410.3 18.5 426.2C18 442 15 458 14.5 473.8C14 489.7 16 505.3 19 521C22 536.7 26 552.3 25 568.2C24 584 18 600 15.5 615.8C13 631.7 14 647.3 17 663.2C20 679 25 695 24.5 710.8C24 726.7 18 742.3 17.5 758C17 773.7 22 789.3 23 805.2C24 821 21 837 21.5 852.8C22 868.7 26 884.3 28 892.2L30 900Z" fill="#174e6a"></path></svg>