<svg id="visual" viewBox="0 0 960 300" width="960" height="300" xmlns="http://www.w3.org/2000/svg" xmlns:xlink="http://www.w3.org/1999/xlink" version="1.1"><path d="M0 37L14.5 38C29 39 58 41 87.2 41.5C116.3 42 145.7 41 174.8 42.5C204 44 233 48 262 45C291 42 320 32 349 27.5C378 23 407 24 436.2 27C465.3 30 494.7 35 523.8 35.5C553 36 582 32 611 33C640 34 669 40 698 44C727 48 756 50 785.2 47.5C814.3 45 843.7 38 872.8 35C902 32 931 33 945.5 33.5L960 34L960 0L945.5 0C931 0 902 0 872.8 0C843.7 0 814.3 0 785.2 0C756 0 727 0 698 0C669 0 640 0 611 0C582 0 553 0 523.8 0C494.7 0 465.3 0 436.2 0C407 0 378 0 349 0C320 0 291 0 262 0C233 0 204 0 174.8 0C145.7 0 116.3 0 87.2 0C58 0 29 0 14.5 0L0 0Z" fill="#2da971"></path><path d="M0 109L14.5 106C29 103 58 97 87.2 105.5C116.3 114 145.7 137 174.8 152C204 167 233 174 262 160.5C291 147 320 113 349 101.5C378 90 407 101 436.2 109.5C465.3 118 494.7 124 523.8 124C553 124 582 118 611 118C640 118 669 124 698 128.5C727 133 756 136 785.2 138.5C814.3 141 843.7 143 872.8 135.5C902 128 931 111 945.5 102.5L960 94L960 32L945.5 31.5C931 31 902 30 872.8 33C843.7 36 814.3 43 785.2 45.5C756 48 727 46 698 42C669 38 640 32 611 31C582 30 553 34 523.8 33.5C494.7 33 465.3 28 436.2 25C407 22 378 21 349 25.5C320 30 291 40 262 43C233 46 204 42 174.8 40.5C145.7 39 116.3 40 87.2 39.5C58 39 29 37 14.5 36L0 35Z" fill="#6dbf93"></path><path d="M0 172L14.5 166C29 160 58 148 87.2 151C116.3 154 145.7 172 174.8 182.5C204 193 233 196 262 183.5C291 171 320 143 349 133C378 123 407 131 436.2 141.5C465.3 152 494.7 165 523.8 164C553 163 582 148 611 148.5C640 149 669 165 698 173C727 181 756 181 785.2 178.5C814.3 176 843.7 171 872.8 166C902 161 931 156 945.5 153.5L960 151L960 92L945.5 100.5C931 109 902 126 872.8 133.5C843.7 141 814.3 139 785.2 136.5C756 134 727 131 698 126.5C669 122 640 116 611 116C582 116 553 122 523.8 122C494.7 122 465.3 116 436.2 107.5C407 99 378 88 349 99.5C320 111 291 145 262 158.5C233 172 204 165 174.8 150C145.7 135 116.3 112 87.2 103.5C58 95 29 101 14.5 104L0 107Z" fill="#a0d5b6"></path><path d="M0 250L14.5 249C29 248 58 246 87.2 243.5C116.3 241 145.7 238 174.8 238C204 238 233 241 262 238.5C291 236 320 228 349 226.5C378 225 407 230 436.2 231C465.3 232 494.7 229 523.8 228.5C553 228 582 230 611 236C640 242 669 252 698 257.5C727 263 756 264 785.2 258C814.3 252 843.7 239 872.8 236.5C902 234 931 242 945.5 246L960 250L960 149L945.5 151.5C931 154 902 159 872.8 164C843.7 169 814.3 174 785.2 176.5C756 179 727 179 698 171C669 163 640 147 611 146.5C582 146 553 161 523.8 162C494.7 163 465.3 150 436.2 139.5C407 129 378 121 349 131C320 141 291 169 262 181.5C233 194 204 191 174.8 180.5C145.7 170 116.3 152 87.2 149C58 146 29 158 14.5 164L0 170Z" fill="#d0eada"></path><path d="M0 301L14.5 301C29 301 58 301 87.2 301C116.3 301 145.7 301 174.8 301C204 301 233 301 262 301C291 301 320 301 349 301C378 301 407 301 436.2 301C465.3 301 494.7 301 523.8 301C553 301 582 301 611 301C640 301 669 301 698 301C727 301 756 301 785.2 301C814.3 301 843.7 301 872.8 301C902 301 931 301 945.5 301L960 301L960 248L945.5 244C931 240 902 232 872.8 234.5C843.7 237 814.3 250 785.2 256C756 262 727 261 698 255.5C669 250 640 240 611 234C582 228 553 226 523.8 226.5C494.7 227 465.3 230 436.2 229C407 228 378 223 349 224.5C320 226 291 234 262 236.5C233 239 204 236 174.8 236C145.7 236 116.3 239 87.2 241.5C58 244 29 246 14.5 247L0 248Z" fill="#ffffff"></path></svg>